<svg xmlns="http://www.w3.org/2000/svg" viewBox="0 0 64 64" width="64" height="64">
  <!-- 7 petals -->
  <ellipse cx="32" cy="17" rx="6.5" ry="13" fill="white" stroke="#2d3315" stroke-width="1.2" transform="rotate(0 32 32)"/>
  <ellipse cx="32" cy="17" rx="6.5" ry="13" fill="white" stroke="#2d3315" stroke-width="1.2" transform="rotate(51.43 32 32)"/>
  <ellipse cx="32" cy="17" rx="6.5" ry="13" fill="white" stroke="#2d3315" stroke-width="1.2" transform="rotate(102.86 32 32)"/>
  <ellipse cx="32" cy="17" rx="6.5" ry="13" fill="white" stroke="#2d3315" stroke-width="1.2" transform="rotate(154.29 32 32)"/>
  <ellipse cx="32" cy="17" rx="6.5" ry="13" fill="white" stroke="#2d3315" stroke-width="1.2" transform="rotate(205.71 32 32)"/>
  <ellipse cx="32" cy="17" rx="6.5" ry="13" fill="white" stroke="#2d3315" stroke-width="1.2" transform="rotate(257.14 32 32)"/>
  <ellipse cx="32" cy="17" rx="6.5" ry="13" fill="white" stroke="#2d3315" stroke-width="1.2" transform="rotate(308.57 32 32)"/>
  <!-- Center circle -->
  <circle cx="32" cy="32" r="9" fill="white" stroke="#2d3315" stroke-width="1.2"/>
  <!-- Spiral -->
  <path d="M32 24 C37 24 42 28 42 33 C42 39 37 44 32 44 C27 44 23 40 23 35 C23 31 26 28 30 28 C33 28 35 30 35 32" fill="none" stroke="#2d3315" stroke-width="1.4" stroke-linecap="round"/>
</svg>
